# xmcd CD database file
#
# Track frame offsets:
#	150
#	2832
#	5902
#	8427
#	11055
#	13442
#	16447
#	19005
#	21452
#	23910
#	26192
#	28502
#	32117
#	34827
#	37237
#	39480
#	42262
#	44612
#	47730
#	50262
#	52925
#	55515
#
# Disc length: 769 seconds
#
# Revision: 0
# Processed by: cddbd v1.5PL3 Copyright (c) Steve Scherf et al.
# Submitted via: CDex 1.51
#
DISCID=1902ff16
DTITLE=Various Artist - Eric Kriss - Barrelhouse and Boogie Piano
DYEAR=1975
DGENRE=Blues
TTITLE0=Jelly Roll Blues
TTITLE1=Dyin' Rider Blues
TTITLE2=Merey Blues
TTITLE3=Dying Pickpocket Blues
TTITLE4=State Street Jive
TTITLE5=I Don't Know
TTITLE6=Peetie Wheatstraw Stomp
TTITLE7=Indiana Avenue Stomp
TTITLE8=Fat Fanny Stomp
TTITLE9=Big Fat Mama
TTITLE10=Honky Tonk Train
TTITLE11=Sail on Blues
TTITLE12=I Need a Little Sprirt
TTITLE13=Whistlin' Alex Moore's Blues
TTITLE14=The Cows
TTITLE15=Sugarland Blues
TTITLE16=Atlanta Bounce
TTITLE17=It's You Baby
TTITLE18=Lonesome Day Blues
TTITLE19=I Can Tell By The Way You Smell
TTITLE20=Stella Blues
TTITLE21=Short Haired Blues
EXTD=YEAR: 1975
EXTT0=
EXTT1=
EXTT2=
EXTT3=
EXTT4=
EXTT5=
EXTT6=
EXTT7=
EXTT8=
EXTT9=
EXTT10=
EXTT11=
EXTT12=
EXTT13=
EXTT14=
EXTT15=
EXTT16=
EXTT17=
EXTT18=
EXTT19=
EXTT20=
EXTT21=
PLAYORDER=
